<svg xmlns="http://www.w3.org/2000/svg" version="1.1" xmlns:xlink="http://www.w3.org/1999/xlink" xmlns:svgjs="http://svgjs.dev/svgjs" width="1000" height="1000" viewBox="0 0 1000 1000"><rect width="1000" height="1000" fill="#ffffff"></rect><g transform="matrix(0.7,0,0,0.7,149.76797928092503,406.21969598330935)"><svg viewBox="0 0 400 86" data-background-color="#ffffff" preserveAspectRatio="xMidYMid meet" height="215" width="1000" xmlns="http://www.w3.org/2000/svg" xmlns:xlink="http://www.w3.org/1999/xlink"><g id="tight-bounds" transform="matrix(1,0,0,1,0.13258326804282206,10.755258608154236)"><svg viewBox="0 0 395.52 75.1636964076373" height="75.1636964076373" width="395.52"><g><svg viewBox="0 0 508.70757603890934 96.67359882092853" height="75.1636964076373" width="395.52"><g transform="matrix(1,0,0,1,0,13.36082299189389)"><svg viewBox="0 0 395.52 69.95195283714075" height="69.95195283714075" width="395.52"><g><svg viewBox="0 0 395.52 69.95195283714075" height="69.95195283714075" width="395.52"><g><svg viewBox="0 0 395.52 69.95195283714075" height="69.95195283714075" width="395.52"><g transform="matrix(1,0,0,1,0,0)"><svg width="395.52" viewBox="3.25 -35.5 203.52999877929688 36" height="69.95195283714075" data-palette-color="#ea3c12"><path d="M7.9-23.75L7.9 0 3.25 0 3.25-23.85Q3.25-29 6.58-32.25 9.9-35.5 14.8-35.5L14.8-35.5Q20.2-35.5 22.93-32.77 25.65-30.05 25.65-26.1L25.65-26.1Q25.65-21.05 20.95-18.85L20.95-18.85 20.95-18.65Q27.4-16.8 27.4-9.7L27.4-9.7Q27.4 0 15.95 0L15.95 0 9.7 0 9.7-4.4 15.9-4.4Q19.35-4.4 20.95-5.8 22.55-7.2 22.55-10.3L22.55-10.3Q22.55-13 20.83-14.45 19.1-15.9 16.15-15.9L16.15-15.9 11.2-15.9 11.2-20.05 14.4-20.05Q17.1-20.05 19.03-21.53 20.95-23 20.95-25.5L20.95-25.5Q20.95-27.9 19.48-29.5 18-31.1 14.7-31.1L14.7-31.1Q11.7-31.1 9.8-29.23 7.9-27.35 7.9-23.75L7.9-23.75ZM52.85-10.35L52.85-35 57.55-35 57.55-11Q57.55-5.05 54.47-2.27 51.4 0.5 45.2 0.5 39 0.5 35.95-2.27 32.9-5.05 32.9-11L32.9-11 32.9-35 37.6-35 37.6-10.35Q37.6-6.95 39.67-5.43 41.75-3.9 45.15-3.9L45.15-3.9Q48.65-3.9 50.75-5.43 52.85-6.95 52.85-10.35L52.85-10.35ZM88.34-17.5L88.34-17.5Q88.3-9.15 83.72-4.58 79.15 0 71.09 0L71.09 0 64.3 0 64.3-35 71.09-35Q79.15-35 83.72-30.43 88.3-25.85 88.34-17.5ZM69-4.4L71.7-4.4Q77.25-4.4 80.22-8.08 83.2-11.75 83.3-17.5L83.3-17.5Q83.2-23.25 80.22-26.93 77.25-30.6 71.7-30.6L71.7-30.6 69-30.6 69-4.4ZM118.89-17.5L118.89-17.5Q118.84-9.15 114.27-4.58 109.69 0 101.64 0L101.64 0 94.84 0 94.84-35 101.64-35Q109.69-35 114.27-30.43 118.84-25.85 118.89-17.5ZM99.54-4.4L102.24-4.4Q107.79-4.4 110.77-8.08 113.74-11.75 113.84-17.5L113.84-17.5Q113.74-23.25 110.77-26.93 107.79-30.6 102.24-30.6L102.24-30.6 99.54-30.6 99.54-4.4ZM142.09-35L146.79-35 146.79-32.5Q146.79-26.4 144.51-21.33 142.24-16.25 137.89-13.6L137.89-13.6 137.89 0 133.19 0 133.19-13.5Q128.84-16.1 126.49-21.08 124.14-26.05 124.14-32.05L124.14-32.05 124.14-35 128.94-35 128.94-32.5Q128.94-27.35 130.41-23.68 131.89-20 135.54-17.65L135.54-17.65Q142.09-22 142.09-32.5L142.09-32.5 142.09-35ZM172.24-10.35L172.24-35 176.94-35 176.94-11Q176.94-5.05 173.86-2.27 170.79 0.5 164.59 0.5 158.39 0.5 155.34-2.27 152.29-5.05 152.29-11L152.29-11 152.29-35 156.99-35 156.99-10.35Q156.99-6.95 159.06-5.43 161.14-3.9 164.54-3.9L164.54-3.9Q168.04-3.9 170.14-5.43 172.24-6.95 172.24-10.35L172.24-10.35ZM188.13-23.2L188.13 0 183.44 0 183.44-23Q183.44-28.9 186.61-32.2 189.78-35.5 195.03-35.5L195.03-35.5Q200.63-35.5 203.71-32.3 206.78-29.1 206.78-24.15L206.78-24.15Q206.78-21.05 205.66-18.75 204.53-16.45 202.63-15.2 200.74-13.95 198.59-13.35 196.44-12.75 194.09-12.75L194.09-12.75 190.34-12.75 190.34-17.15 194.63-17.15Q197.99-17.15 199.91-19.18 201.84-21.2 201.84-24.25L201.84-24.25Q201.84-27.25 200.06-29.18 198.28-31.1 194.99-31.1L194.99-31.1Q191.78-31.1 189.96-28.93 188.13-26.75 188.13-23.2L188.13-23.2Z" opacity="1" transform="matrix(1,0,0,1,0,0)" fill="#000000" class="undefined-text-0" data-fill-palette-color="primary" id="text-0"></path></svg></g></svg></g></svg></g></svg></g><g transform="matrix(1,0,0,1,412.0339772179808,0)"><svg viewBox="0 0 96.67359882092853 96.67359882092853" height="96.67359882092853" width="96.67359882092853"><g><svg xmlns="http://www.w3.org/2000/svg" data-name="Layer 1" viewBox="0 0 128 128" x="0" y="0" height="96.67359882092853" width="96.67359882092853" class="icon-icon-0" data-fill-palette-color="accent" id="icon-0"><path d="M103 32A14 14 0 1 0 89 18 14 14 0 0 0 103 32Zm0-24A10 10 0 1 1 93 18 10.011 10.011 0 0 1 103 8Z" fill="#000000" data-fill-palette-color="accent"></path><path d="M25 32A14 14 0 1 0 11 18 14 14 0 0 0 25 32ZM25 8A10 10 0 1 1 15 18 10.011 10.011 0 0 1 25 8Z" fill="#000000" data-fill-palette-color="accent"></path><path d="M64 28A14 14 0 1 0 50 14 14 14 0 0 0 64 28ZM64 4A10 10 0 1 1 54 14 10.011 10.011 0 0 1 64 4Z" fill="#000000" data-fill-palette-color="accent"></path><path d="M75.289 28H77a8 8 0 0 1 8 8V54.019a35.29 35.29 0 0 1 4 3.52V36A12.008 12.008 0 0 0 78.847 24.157 18.138 18.138 0 0 1 75.289 28Z" fill="#000000" data-fill-palette-color="accent"></path><path d="M39 57.539a35.29 35.29 0 0 1 4-3.52V36a8 8 0 0 1 8-8h1.711a18.138 18.138 0 0 1-3.558-3.843A12.008 12.008 0 0 0 39 36Z" fill="#000000" data-fill-palette-color="accent"></path><path d="M50 114.069V126a2 2 0 0 0 2 2H76a2 2 0 0 0 2-2V114.069a34.728 34.728 0 0 1-4 1.468V124H66v-7.061c-0.662 0.038-1.328 0.061-2 0.061s-1.338-0.024-2-0.061V124H54v-8.463A34.716 34.716 0 0 1 50 114.069Z" fill="#000000" data-fill-palette-color="accent"></path><path d="M4 98h7v28a2 2 0 0 0 2 2H37a2 2 0 0 0 2-2V106.461a35.261 35.261 0 0 1-4-4.886V124H27V104a2 2 0 0 0-4 0v20H15V74a2 2 0 0 0-4 0V94H4V40a8 8 0 0 1 8-8h1.711a18.138 18.138 0 0 1-3.558-3.843A12.008 12.008 0 0 0 0 40V94A4 4 0 0 0 4 98Z" fill="#000000" data-fill-palette-color="accent"></path><path d="M95 82a31 31 0 1 0-31 31A31 31 0 0 0 95 82ZM64 109A27 27 0 1 1 91 82 27.031 27.031 0 0 1 64 109Z" fill="#000000" data-fill-palette-color="accent"></path><path d="M84.461 68.634a2 2 0 0 0-2.827-0.095L57.38 91.21l-10.957-11.095a2 2 0 0 0-2.846 2.81l12.324 12.48a1.999 1.999 0 0 0 2.789 0.056l25.676-24A2 2 0 0 0 84.461 68.634Z" fill="#000000" data-fill-palette-color="accent"></path><path d="M114.289 32H116a8 8 0 0 1 8 8V94h-7V74a2 2 0 0 0-4 0v50h-8V104a2 2 0 0 0-4 0v20H93V101.575a35.261 35.261 0 0 1-4 4.886V126a2 2 0 0 0 2 2h24a2 2 0 0 0 2-2V98h7a4 4 0 0 0 4-4V40a12.008 12.008 0 0 0-10.153-11.843A18.138 18.138 0 0 1 114.289 32Z" fill="#000000" data-fill-palette-color="accent"></path></svg></g></svg></g></svg></g><defs></defs></svg><rect width="395.52" height="75.1636964076373" fill="none" stroke="none" visibility="hidden"></rect></g></svg></g></svg>